<svg width="24" height="24" viewBox="0 0 24 24" fill="none" xmlns="http://www.w3.org/2000/svg">
<path d="M13.125 5.625C18.375 6.375 21.375 12 21.375 12C21.375 12 20.625 13.875 19.125 15.375M15.375 17.625C6.375 20.625 2.625 12 2.625 12C2.625 12 3.375 9.375 7.125 7.125" stroke="#1E1E1E" stroke-width="2.25" stroke-linecap="round" stroke-linejoin="round"/>
<path d="M12.9376 13.6245C12.5313 13.8589 12.0519 13.9326 11.594 13.831C11.1361 13.7294 10.733 13.4598 10.4641 13.0755C10.1948 12.6913 10.0793 12.2202 10.1404 11.7551C10.2015 11.2899 10.4347 10.8646 10.7941 10.563L12.0001 12L12.9376 13.6245Z" fill="#1E1E1E" stroke="#1E1E1E" stroke-width="2.25" stroke-linecap="round" stroke-linejoin="round"/>
<path d="M5.625 2.625L18.375 21.375" stroke="#1E1E1E" stroke-width="2.25" stroke-linecap="round" stroke-linejoin="round"/>
</svg>
