<svg width="32" height="32" viewBox="0 0 32 32" fill="none" xmlns="http://www.w3.org/2000/svg">
<path d="M15.5733 20.4933C15.32 20.4933 15.0667 20.4 14.8667 20.2C14.48 19.8133 14.48 19.1733 14.8667 18.7867L17.5733 16.08L14.8667 13.3733C14.48 12.9867 14.48 12.3467 14.8667 11.96C15.2533 11.5733 15.8933 11.5733 16.28 11.96L19.6933 15.3733C20.08 15.76 20.08 16.4 19.6933 16.7867L16.28 20.2C16.0933 20.4 15.8267 20.4933 15.5733 20.4933Z" fill="#1E1E1E"/>
<path d="M18.8934 17.08H5.33337C4.78671 17.08 4.33337 16.6267 4.33337 16.08C4.33337 15.5333 4.78671 15.08 5.33337 15.08H18.8934C19.44 15.08 19.8934 15.5333 19.8934 16.08C19.8934 16.6267 19.44 17.08 18.8934 17.08Z" fill="#1E1E1E"/>
<path d="M16 27.6667C15.4533 27.6667 15 27.2133 15 26.6667C15 26.12 15.4533 25.6667 16 25.6667C21.6933 25.6667 25.6667 21.6933 25.6667 16C25.6667 10.3067 21.6933 6.33333 16 6.33333C15.4533 6.33333 15 5.88 15 5.33333C15 4.78667 15.4533 4.33333 16 4.33333C22.8667 4.33333 27.6667 9.13333 27.6667 16C27.6667 22.8667 22.8667 27.6667 16 27.6667Z" fill="#1E1E1E"/>
</svg>
